<svg width="839" height="584" viewBox="0 0 839 584" fill="none" xmlns="http://www.w3.org/2000/svg">
<rect x="0.5" y="104.5" width="379" height="479" rx="19.5" fill="white"/>
<rect x="0.5" y="104.5" width="379" height="479" rx="19.5" stroke="#A6A6A6"/>
<mask id="path-2-inside-1_744_2" fill="white">
<path d="M0 104H380V164H0V104Z"/>
</mask>
<path d="M0 104H380V164H0V104Z" fill="white"/>
<path d="M380 163H0V165H380V163Z" fill="#A6A6A6" mask="url(#path-2-inside-1_744_2)"/>
<path d="M152.094 125.781V122.375H170.125V125.781H163.156V145H159.094V125.781H152.094ZM178.062 145.344C173.125 145.344 169.938 141.844 169.938 136.594C169.938 131.312 173.125 127.812 178.062 127.812C183.031 127.812 186.188 131.312 186.188 136.594C186.188 141.844 183.031 145.344 178.062 145.344ZM178.094 142.156C180.812 142.156 182.156 139.688 182.156 136.562C182.156 133.469 180.812 130.969 178.094 130.969C175.312 130.969 173.969 133.469 173.969 136.562C173.969 139.688 175.312 142.156 178.094 142.156ZM197.156 145H189.469V122.375H197.281C204.031 122.375 208.125 126.625 208.125 133.656C208.125 140.719 204.031 145 197.156 145ZM193.531 141.469H196.938C201.656 141.469 204.062 138.875 204.062 133.656C204.062 128.469 201.656 125.906 197.062 125.906H193.531V141.469ZM218.938 145.344C214 145.344 210.812 141.844 210.812 136.594C210.812 131.312 214 127.812 218.938 127.812C223.906 127.812 227.062 131.312 227.062 136.594C227.062 141.844 223.906 145.344 218.938 145.344ZM218.969 142.156C221.688 142.156 223.031 139.688 223.031 136.562C223.031 133.469 221.688 130.969 218.969 130.969C216.188 130.969 214.844 133.469 214.844 136.562C214.844 139.688 216.188 142.156 218.969 142.156Z" fill="black"/>
<g filter="url(#filter0_d_744_2)">
<rect x="40" y="174" width="300" height="60" rx="4" fill="white"/>
<path d="M142.443 196.86H144.483V199.98C144.483 204.18 143.303 208.26 140.323 210.06L138.683 208.1C141.443 206.44 142.443 203.12 142.443 199.98V196.86ZM142.963 196.86H145.023V199.78C145.023 202.98 145.863 206 148.443 207.42L146.903 209.52C143.903 207.84 142.963 204.02 142.963 199.78V196.86ZM152.403 195.26H154.943V213.78H152.403V195.26ZM150.183 202.46H153.243V204.6H150.183V202.46ZM148.403 195.54H150.903V212.94H148.403V195.54ZM175.122 195.24H177.782V205.24H175.122V195.24ZM176.722 199.2H180.242V201.36H176.722V199.2ZM165.542 205.98H177.782V210.68H168.222V212.36H165.582V208.88H175.162V207.9H165.542V205.98ZM165.582 211.7H178.322V213.66H165.582V211.7ZM163.202 196.62H174.102V198.62H163.202V196.62ZM168.662 199.06C171.402 199.06 173.202 200.24 173.202 202.1C173.202 203.96 171.402 205.1 168.662 205.1C165.902 205.1 164.102 203.96 164.102 202.1C164.102 200.24 165.902 199.06 168.662 199.06ZM168.662 200.92C167.422 200.92 166.662 201.32 166.662 202.1C166.662 202.84 167.422 203.24 168.662 203.24C169.902 203.24 170.662 202.84 170.662 202.1C170.662 201.32 169.902 200.92 168.662 200.92ZM167.322 195.12H169.982V198.04H167.322V195.12ZM186.821 195.8C189.641 195.8 191.761 197.56 191.761 200.04C191.761 202.5 189.641 204.26 186.821 204.26C184.001 204.26 181.881 202.5 181.881 200.04C181.881 197.56 184.001 195.8 186.821 195.8ZM186.821 197.96C185.461 197.96 184.441 198.72 184.441 200.04C184.441 201.36 185.461 202.12 186.821 202.12C188.181 202.12 189.181 201.36 189.181 200.04C189.181 198.72 188.181 197.96 186.821 197.96ZM194.321 195.26H197.001V204.52H194.321V195.26ZM184.641 205.28H197.001V210.36H187.281V212.6H184.681V208.44H194.361V207.34H184.641V205.28ZM184.681 211.52H197.461V213.58H184.681V211.52ZM212.82 207.12H215.46V213.8H212.82V207.12ZM205.8 206.34H222.54V208.5H205.8V206.34ZM212.8 198.58H215.14V199.02C215.14 202.12 212.46 204.82 207.56 205.4L206.64 203.32C210.82 202.84 212.8 200.74 212.8 199.02V198.58ZM213.14 198.58H215.48V199.02C215.48 200.7 217.48 202.84 221.64 203.32L220.7 205.4C215.82 204.84 213.14 202.04 213.14 199.02V198.58ZM207.3 197.38H221.02V199.48H207.3V197.38ZM212.82 195.3H215.46V198.1H212.82V195.3ZM236.019 195.24H238.699V213.76H236.019V195.24ZM237.999 202.32H241.259V204.5H237.999V202.32ZM231.159 197.16H233.759C233.759 202.72 231.639 207.48 225.479 210.58L223.999 208.56C228.859 206.04 231.159 202.64 231.159 197.62V197.16ZM225.019 197.16H232.519V199.3H225.019V197.16Z" fill="black" fill-opacity="0.5"/>
<path d="M311 191.812C308.59 191.812 306.233 192.527 304.229 193.866C302.225 195.206 300.663 197.109 299.74 199.336C298.818 201.563 298.576 204.014 299.047 206.378C299.517 208.742 300.678 210.913 302.382 212.618C304.087 214.322 306.258 215.483 308.622 215.953C310.986 216.424 313.437 216.182 315.664 215.26C317.891 214.337 319.794 212.775 321.134 210.771C322.473 208.767 323.188 206.41 323.188 204C323.183 200.769 321.898 197.671 319.613 195.387C317.329 193.102 314.231 191.817 311 191.812ZM315.688 204.938H311.938V208.688C311.938 208.936 311.839 209.175 311.663 209.35C311.487 209.526 311.249 209.625 311 209.625C310.751 209.625 310.513 209.526 310.337 209.35C310.161 209.175 310.063 208.936 310.063 208.688V204.938H306.313C306.064 204.938 305.825 204.839 305.65 204.663C305.474 204.487 305.375 204.249 305.375 204C305.375 203.751 305.474 203.513 305.65 203.337C305.825 203.161 306.064 203.062 306.313 203.062H310.063V199.312C310.063 199.064 310.161 198.825 310.337 198.65C310.513 198.474 310.751 198.375 311 198.375C311.249 198.375 311.487 198.474 311.663 198.65C311.839 198.825 311.938 199.064 311.938 199.312V203.062H315.688C315.936 203.062 316.175 203.161 316.35 203.337C316.526 203.513 316.625 203.751 316.625 204C316.625 204.249 316.526 204.487 316.35 204.663C316.175 204.839 315.936 204.938 315.688 204.938Z" fill="#E3CD00"/>
</g>
<g filter="url(#filter1_d_744_2)">
<rect x="40" y="244" width="300" height="60" rx="4" fill="white"/>
<path fill-rule="evenodd" clip-rule="evenodd" d="M73.2585 267.491C73.4929 267.725 73.6245 268.043 73.6245 268.375C73.6245 268.706 73.4929 269.024 73.2585 269.258L61.3835 281.133C61.1491 281.368 60.8312 281.499 60.4998 281.499C60.1683 281.499 59.8504 281.368 59.616 281.133L53.991 275.508C53.7633 275.273 53.6373 274.957 53.6402 274.629C53.643 274.301 53.7745 273.988 54.0063 273.756C54.238 273.524 54.5515 273.393 54.8793 273.39C55.207 273.387 55.5228 273.513 55.7585 273.741L60.4998 278.482L71.491 267.491C71.7254 267.257 72.0433 267.125 72.3748 267.125C72.7062 267.125 73.0241 267.257 73.2585 267.491Z" fill="black" fill-opacity="0.5"/>
<path d="M159.223 265.8C162.043 265.8 164.163 267.56 164.163 270.04C164.163 272.5 162.043 274.26 159.223 274.26C156.403 274.26 154.283 272.5 154.283 270.04C154.283 267.56 156.403 265.8 159.223 265.8ZM159.223 267.96C157.863 267.96 156.843 268.72 156.843 270.04C156.843 271.36 157.863 272.12 159.223 272.12C160.583 272.12 161.583 271.36 161.583 270.04C161.583 268.72 160.583 267.96 159.223 267.96ZM166.723 265.26H169.403V274.52H166.723V265.26ZM157.043 275.28H169.403V280.36H159.683V282.6H157.083V278.44H166.763V277.34H157.043V275.28ZM157.083 281.52H169.863V283.58H157.083V281.52ZM177.482 266.54C180.242 266.54 182.262 269.1 182.262 273.14C182.262 277.22 180.242 279.78 177.482 279.78C174.702 279.78 172.702 277.22 172.702 273.14C172.702 269.1 174.702 266.54 177.482 266.54ZM177.482 268.96C176.142 268.96 175.242 270.42 175.242 273.14C175.242 275.9 176.142 277.38 177.482 277.38C178.842 277.38 179.722 275.9 179.722 273.14C179.722 270.42 178.842 268.96 177.482 268.96ZM185.302 265.24H187.942V283.82H185.302V265.24ZM181.482 271.92H186.422V274.06H181.482V271.92ZM204.62 272.26H207.88V274.44H204.62V272.26ZM202.64 265.24H205.32V283.76H202.64V265.24ZM191.36 267.02H194.02V278.52H191.36V267.02ZM191.36 277.04H192.96C195.6 277.04 198.46 276.86 201.44 276.26L201.72 278.44C198.66 279.08 195.68 279.24 192.96 279.24H191.36V277.04ZM221.958 265.26H224.638V283.78H221.958V265.26ZM216.498 267.18H219.138C219.138 272.84 217.218 277.48 210.638 280.66L209.258 278.54C214.578 275.98 216.498 272.62 216.498 267.66V267.18ZM210.238 267.18H217.758V269.28H210.238V267.18Z" fill="black"/>
<path d="M318.333 265.167H314.25L313.083 264H307.25L306.083 265.167H302V267.5H318.333M303.167 282.667C303.167 283.286 303.412 283.879 303.85 284.317C304.288 284.754 304.881 285 305.5 285H314.833C315.452 285 316.046 284.754 316.483 284.317C316.921 283.879 317.167 283.286 317.167 282.667V268.667H303.167V282.667Z" fill="black" fill-opacity="0.5"/>
</g>
<g filter="url(#filter2_d_744_2)">
<rect x="40" y="314" width="300" height="60" rx="4" fill="white"/>
<path fill-rule="evenodd" clip-rule="evenodd" d="M73.2585 337.491C73.4929 337.725 73.6245 338.043 73.6245 338.375C73.6245 338.706 73.4929 339.024 73.2585 339.258L61.3835 351.133C61.1491 351.368 60.8312 351.499 60.4998 351.499C60.1683 351.499 59.8504 351.368 59.616 351.133L53.991 345.508C53.7633 345.273 53.6373 344.957 53.6402 344.629C53.643 344.301 53.7745 343.988 54.0063 343.756C54.238 343.524 54.5515 343.393 54.8793 343.39C55.207 343.387 55.5228 343.513 55.7585 343.741L60.4998 348.482L71.491 337.491C71.7254 337.257 72.0433 337.125 72.3748 337.125C72.7062 337.125 73.0241 337.257 73.2585 337.491Z" fill="black" fill-opacity="0.5"/>
<path d="M175.122 335.26H177.782V345.42H175.122V335.26ZM177.042 339.16H180.242V341.34H177.042V339.16ZM163.742 336.18H166.382V338.4H170.002V336.18H172.642V344.76H163.742V336.18ZM166.382 340.44V342.66H170.002V340.44H166.382ZM165.682 346.22H168.322V347.84H175.142V346.22H177.782V353.58H165.682V346.22ZM168.322 349.88V351.48H175.142V349.88H168.322ZM184.481 347.08H197.101V353.8H194.441V349.16H184.481V347.08ZM194.441 335.26H197.101V346.22H194.441V335.26ZM190.661 339.68H195.101V341.82H190.661V339.68ZM182.361 336.6H191.121V345.22H182.361V336.6ZM188.501 338.7H184.981V343.14H188.501V338.7ZM212.759 335.26H215.439V353.78H212.759V335.26ZM207.299 337.18H209.939C209.939 342.84 208.019 347.48 201.439 350.66L200.059 348.54C205.379 345.98 207.299 342.62 207.299 337.66V337.18ZM201.039 337.18H208.559V339.28H201.039V337.18Z" fill="black"/>
<path d="M318.333 335.167H314.25L313.083 334H307.25L306.083 335.167H302V337.5H318.333M303.167 352.667C303.167 353.286 303.412 353.879 303.85 354.317C304.288 354.754 304.881 355 305.5 355H314.833C315.452 355 316.046 354.754 316.483 354.317C316.921 353.879 317.167 353.286 317.167 352.667V338.667H303.167V352.667Z" fill="black" fill-opacity="0.5"/>
</g>
<g filter="url(#filter3_d_744_2)">
<rect x="40" y="384" width="300" height="60" rx="4" fill="white"/>
<path fill-rule="evenodd" clip-rule="evenodd" d="M73.2585 407.491C73.4929 407.725 73.6245 408.043 73.6245 408.375C73.6245 408.706 73.4929 409.024 73.2585 409.258L61.3835 421.133C61.1491 421.368 60.8312 421.499 60.4998 421.499C60.1683 421.499 59.8504 421.368 59.616 421.133L53.991 415.508C53.7633 415.273 53.6373 414.957 53.6402 414.629C53.643 414.301 53.7745 413.988 54.0063 413.756C54.238 413.524 54.5515 413.393 54.8793 413.39C55.207 413.387 55.5228 413.513 55.7585 413.741L60.4998 418.482L71.491 407.491C71.7254 407.257 72.0433 407.125 72.3748 407.125C72.7062 407.125 73.0241 407.257 73.2585 407.491Z" fill="black" fill-opacity="0.5"/>
<path d="M167.282 407.04H169.462V408.3C169.462 411.76 167.802 414.92 164.222 416.06L162.882 413.96C165.982 412.98 167.282 410.6 167.282 408.3V407.04ZM167.802 407.04H169.982V408.28C169.982 410.44 171.242 412.62 174.242 413.56L172.962 415.66C169.442 414.58 167.802 411.56 167.802 408.28V407.04ZM163.582 406.34H173.602V408.44H163.582V406.34ZM175.122 405.26H177.782V415.98H175.122V405.26ZM177.042 409.44H180.242V411.6H177.042V409.44ZM165.742 416.72H177.782V423.58H165.742V416.72ZM175.182 418.8H168.362V421.48H175.182V418.8ZM185.761 408.18H187.861V410.26C187.861 414.44 186.101 418.7 182.701 420.3L181.201 418.2C184.261 416.76 185.761 413.3 185.761 410.26V408.18ZM186.321 408.18H188.421V410.26C188.421 413.06 189.861 416.34 192.901 417.74L191.441 419.84C188.041 418.26 186.321 414.2 186.321 410.26V408.18ZM181.921 407.04H192.081V409.22H181.921V407.04ZM193.441 405.26H196.121V423.78H193.441V405.26ZM195.521 412.32H198.801V414.52H195.521V412.32ZM212.759 405.26H215.439V423.78H212.759V405.26ZM207.299 407.18H209.939C209.939 412.84 208.019 417.48 201.439 420.66L200.059 418.54C205.379 415.98 207.299 412.62 207.299 407.66V407.18ZM201.039 407.18H208.559V409.28H201.039V407.18Z" fill="black"/>
<path opacity="0.5" d="M318.333 406.167H314.25L313.083 405H307.25L306.083 406.167H302V408.5H318.333M303.167 423.667C303.167 424.286 303.412 424.879 303.85 425.317C304.288 425.754 304.881 426 305.5 426H314.833C315.452 426 316.046 425.754 316.483 425.317C316.921 424.879 317.167 424.286 317.167 423.667V409.667H303.167V423.667Z" fill="black"/>
</g>
<rect x="459.5" y="104.5" width="379" height="479" rx="19.5" fill="white"/>
<rect x="459.5" y="104.5" width="379" height="479" rx="19.5" stroke="#A6A6A6"/>
<mask id="path-21-inside-2_744_2" fill="white">
<path d="M459 104H839V164H459V104Z"/>
</mask>
<path d="M459 104H839V164H459V104Z" fill="white"/>
<path d="M839 163H459V165H839V163Z" fill="#A6A6A6" mask="url(#path-21-inside-2_744_2)"/>
<path d="M619.781 145H612.094V122.375H619.906C626.656 122.375 630.75 126.625 630.75 133.656C630.75 140.719 626.656 145 619.781 145ZM616.156 141.469H619.562C624.281 141.469 626.688 138.875 626.688 133.656C626.688 128.469 624.281 125.906 619.688 125.906H616.156V141.469ZM641.562 145.344C636.625 145.344 633.438 141.844 633.438 136.594C633.438 131.312 636.625 127.812 641.562 127.812C646.531 127.812 649.688 131.312 649.688 136.594C649.688 141.844 646.531 145.344 641.562 145.344ZM641.594 142.156C644.312 142.156 645.656 139.688 645.656 136.562C645.656 133.469 644.312 130.969 641.594 130.969C638.812 130.969 637.469 133.469 637.469 136.562C637.469 139.688 638.812 142.156 641.594 142.156ZM656.781 135.062V145H652.781V128.031H656.594V130.906H656.812C657.594 129 659.312 127.812 661.844 127.812C665.375 127.812 667.688 130.125 667.656 134.188V145H663.688V134.812C663.688 132.531 662.469 131.188 660.375 131.188C658.25 131.188 656.781 132.594 656.781 135.062ZM679 145.344C673.875 145.344 670.75 141.938 670.75 136.625C670.75 131.375 673.938 127.812 678.781 127.812C682.938 127.812 686.531 130.406 686.531 136.375V137.625H674.688C674.734 140.516 676.438 142.219 679.031 142.219C680.781 142.219 681.969 141.469 682.469 140.469H686.375C685.656 143.406 682.938 145.344 679 145.344ZM674.719 134.906H682.719C682.688 132.594 681.156 130.906 678.844 130.906C676.438 130.906 674.844 132.734 674.719 134.906Z" fill="black"/>
<g filter="url(#filter4_d_744_2)">
<rect x="499" y="174" width="300" height="60" rx="4" fill="white"/>
<path fill-rule="evenodd" clip-rule="evenodd" d="M532.259 197.491C532.493 197.725 532.625 198.043 532.625 198.375C532.625 198.706 532.493 199.024 532.259 199.258L520.384 211.133C520.149 211.368 519.831 211.499 519.5 211.499C519.168 211.499 518.85 211.368 518.616 211.133L512.991 205.508C512.763 205.273 512.637 204.957 512.64 204.629C512.643 204.301 512.774 203.988 513.006 203.756C513.238 203.524 513.552 203.393 513.879 203.39C514.207 203.387 514.523 203.513 514.759 203.741L519.5 208.482L530.491 197.491C530.725 197.257 531.043 197.125 531.375 197.125C531.706 197.125 532.024 197.257 532.259 197.491Z" fill="#E3CD00"/>
<path d="M615.083 201.02H628.043V203.14H615.083V201.02ZM613.023 205.24H629.783V207.38H613.023V205.24ZM619.983 206.52H622.643V213.78H619.983V206.52ZM615.083 196.08H617.743V202.02H615.083V196.08ZM635.882 205.7H638.542V213.22H635.882V205.7ZM644.422 195.26H647.102V213.78H644.422V195.26ZM631.662 206.82L631.342 204.66C634.782 204.66 639.322 204.64 643.262 204.1L643.402 206.04C639.362 206.76 635.042 206.82 631.662 206.82ZM640.722 207.72H644.962V209.72H640.722V207.72ZM637.342 196.02C640.062 196.02 642.042 197.58 642.042 199.82C642.042 202.08 640.062 203.62 637.342 203.62C634.582 203.62 632.622 202.08 632.622 199.82C632.622 197.58 634.582 196.02 637.342 196.02ZM637.342 198.02C636.022 198.02 635.102 198.7 635.102 199.82C635.102 200.96 636.022 201.6 637.342 201.6C638.622 201.6 639.542 200.96 639.542 199.82C639.542 198.7 638.622 198.02 637.342 198.02ZM653.96 206.5H655.96V207.12C655.96 209.92 654.72 212.48 651.82 213.52L650.52 211.58C652.94 210.76 653.96 208.92 653.96 207.12V206.5ZM654.64 206.5H656.54V207.12C656.54 208.92 657.44 210.8 659.7 211.74L658.64 213.7C655.7 212.6 654.64 209.84 654.64 207.12V206.5ZM660.72 206.5H662.62V207.12C662.62 209.68 661.52 212.56 658.64 213.7L657.54 211.74C659.8 210.72 660.72 208.76 660.72 207.12V206.5ZM661.34 206.5H663.34V207.12C663.34 209.04 664.34 210.82 666.78 211.58L665.48 213.52C662.54 212.52 661.34 210.04 661.34 207.12V206.5ZM662.52 195.28H665.2V205.74H662.52V195.28ZM655.12 196.22C658 196.22 660.14 198.06 660.14 200.66C660.14 203.24 658 205.08 655.12 205.08C652.24 205.08 650.08 203.24 650.08 200.66C650.08 198.06 652.24 196.22 655.12 196.22ZM655.12 198.42C653.72 198.42 652.68 199.24 652.68 200.66C652.68 202.06 653.72 202.88 655.12 202.88C656.52 202.88 657.54 202.06 657.54 200.66C657.54 199.24 656.52 198.42 655.12 198.42ZM680.958 195.26H683.638V213.78H680.958V195.26ZM675.498 197.18H678.138C678.138 202.84 676.218 207.48 669.638 210.66L668.258 208.54C673.578 205.98 675.498 202.62 675.498 197.66V197.18ZM669.238 197.18H676.758V199.28H669.238V197.18Z" fill="black" fill-opacity="0.5"/>
</g>
<g filter="url(#filter5_d_744_2)">
<rect x="499" y="244" width="300" height="60" rx="4" fill="white"/>
<path fill-rule="evenodd" clip-rule="evenodd" d="M532.259 267.491C532.493 267.725 532.625 268.043 532.625 268.375C532.625 268.706 532.493 269.024 532.259 269.258L520.384 281.133C520.149 281.368 519.831 281.499 519.5 281.499C519.168 281.499 518.85 281.368 518.616 281.133L512.991 275.508C512.763 275.273 512.637 274.957 512.64 274.629C512.643 274.301 512.774 273.988 513.006 273.756C513.238 273.524 513.552 273.393 513.879 273.39C514.207 273.387 514.523 273.513 514.759 273.741L519.5 278.482L530.491 267.491C530.725 267.257 531.043 267.125 531.375 267.125C531.706 267.125 532.024 267.257 532.259 267.491Z" fill="#E3CD00"/>
<path d="M625.522 268.9H627.502V269.48C627.502 272.44 626.302 275.1 623.402 276.18L622.182 274.22C624.522 273.36 625.522 271.46 625.522 269.48V268.9ZM626.062 268.9H628.022V269.48C628.022 271.34 629.042 273.12 631.362 273.92L630.182 275.88C627.262 274.88 626.062 272.32 626.062 269.48V268.9ZM622.702 267.34H630.822V269.42H622.702V267.34ZM625.522 265.44H628.022V268.3H625.522V265.44ZM635.462 265.28H637.982V276.62H635.462V265.28ZM633.242 269.9H636.182V272.02H633.242V269.9ZM631.602 265.56H634.082V276.54H631.602V265.56ZM625.262 277.4H637.982V283.78H635.342V279.52H625.262V277.4ZM653.321 265.26H656.001V274.82H653.321V265.26ZM642.741 281.62H643.961C646.861 281.62 648.361 281.58 650.141 281.22L650.401 283.18C648.541 283.54 646.981 283.58 643.961 283.58H642.741V281.62ZM642.721 275.6H649.101V280.42H645.301V282.74H642.741V278.6H646.521V277.56H642.721V275.6ZM649.781 275.6H656.001V283.74H653.361V277.72H649.781V275.6ZM645.821 266C648.641 266 650.761 267.78 650.761 270.26C650.761 272.76 648.641 274.52 645.821 274.52C643.001 274.52 640.881 272.76 640.881 270.26C640.881 267.78 643.001 266 645.821 266ZM645.821 268.16C644.461 268.16 643.441 268.94 643.441 270.26C643.441 271.58 644.461 272.38 645.821 272.38C647.181 272.38 648.181 271.58 648.181 270.26C648.181 268.94 647.181 268.16 645.821 268.16ZM671.759 265.26H674.439V283.78H671.759V265.26ZM666.299 267.18H668.939C668.939 272.84 667.019 277.48 660.439 280.66L659.059 278.54C664.379 275.98 666.299 272.62 666.299 267.66V267.18ZM660.039 267.18H667.559V269.28H660.039V267.18Z" fill="black" fill-opacity="0.5"/>
</g>
<g filter="url(#filter6_d_744_2)">
<rect x="499" y="314" width="300" height="60" rx="4" fill="white"/>
<path fill-rule="evenodd" clip-rule="evenodd" d="M532.259 337.491C532.493 337.725 532.625 338.043 532.625 338.375C532.625 338.706 532.493 339.024 532.259 339.258L520.384 351.133C520.149 351.368 519.831 351.499 519.5 351.499C519.168 351.499 518.85 351.368 518.616 351.133L512.991 345.508C512.763 345.273 512.637 344.957 512.64 344.629C512.643 344.301 512.774 343.988 513.006 343.756C513.238 343.524 513.552 343.393 513.879 343.39C514.207 343.387 514.523 343.513 514.759 343.741L519.5 348.482L530.491 337.491C530.725 337.257 531.043 337.125 531.375 337.125C531.706 337.125 532.024 337.257 532.259 337.491Z" fill="#E3CD00"/>
<path d="M621.283 346.78C625.283 346.78 627.843 348.1 627.843 350.3C627.843 352.46 625.283 353.78 621.283 353.78C617.283 353.78 614.723 352.46 614.723 350.3C614.723 348.1 617.283 346.78 621.283 346.78ZM621.283 348.78C618.783 348.78 617.363 349.3 617.363 350.3C617.363 351.28 618.783 351.78 621.283 351.78C623.783 351.78 625.203 351.28 625.203 350.3C625.203 349.3 623.783 348.78 621.283 348.78ZM614.923 336.08H626.643V338.18H614.923V336.08ZM613.043 343.52H629.723V345.64H613.043V343.52ZM619.223 340.3H621.863V344.06H619.223V340.3ZM625.103 336.08H627.743V337.6C627.743 339.06 627.743 340.64 627.243 342.56L624.603 342.28C625.103 340.38 625.103 339.04 625.103 337.6V336.08ZM631.402 345.92H648.182V348.02H631.402V345.92ZM638.402 346.98H641.042V353.78H638.402V346.98ZM633.322 335.96H635.962V338.06H643.562V335.96H646.202V344.16H633.322V335.96ZM635.962 340.14V342.04H643.562V340.14H635.962ZM661.68 335.26H664.32V353.78H661.68V335.26ZM663.72 342.48H667V344.7H663.72V342.48ZM649.72 338H660.5V340.12H649.72V338ZM655.14 341.16C657.84 341.16 659.84 343 659.84 345.58C659.84 348.16 657.84 350 655.14 350C652.44 350 650.44 348.16 650.44 345.58C650.44 343 652.44 341.16 655.14 341.16ZM655.14 343.32C653.88 343.32 652.98 344.16 652.98 345.58C652.98 347 653.88 347.84 655.14 347.84C656.4 347.84 657.3 347 657.3 345.58C657.3 344.16 656.4 343.32 655.14 343.32ZM653.8 335.56H656.46V338.8H653.8V335.56ZM680.958 335.26H683.638V353.78H680.958V335.26ZM675.498 337.18H678.138C678.138 342.84 676.218 347.48 669.638 350.66L668.258 348.54C673.578 345.98 675.498 342.62 675.498 337.66V337.18ZM669.238 337.18H676.758V339.28H669.238V337.18Z" fill="black" fill-opacity="0.5"/>
</g>
<g filter="url(#filter7_d_744_2)">
<rect x="499" y="384" width="300" height="60" rx="4" fill="white"/>
<path fill-rule="evenodd" clip-rule="evenodd" d="M532.259 407.491C532.493 407.725 532.625 408.043 532.625 408.375C532.625 408.706 532.493 409.024 532.259 409.258L520.384 421.133C520.149 421.368 519.831 421.499 519.5 421.499C519.168 421.499 518.85 421.368 518.616 421.133L512.991 415.508C512.763 415.273 512.637 414.957 512.64 414.629C512.643 414.301 512.774 413.988 513.006 413.756C513.238 413.524 513.552 413.393 513.879 413.39C514.207 413.387 514.523 413.513 514.759 413.741L519.5 418.482L530.491 407.491C530.725 407.257 531.043 407.125 531.375 407.125C531.706 407.125 532.024 407.257 532.259 407.491Z" fill="#E3CD00"/>
<path d="M613.003 414.26H629.783V416.36H613.003V414.26ZM620.183 415.64H622.883V419.54H620.183V415.64ZM614.963 421.32H627.943V423.46H614.963V421.32ZM614.963 417.92H617.643V421.86H614.963V417.92ZM621.383 405.6C625.363 405.6 628.043 407.1 628.043 409.44C628.043 411.8 625.363 413.28 621.383 413.28C617.383 413.28 614.723 411.8 614.723 409.44C614.723 407.1 617.383 405.6 621.383 405.6ZM621.383 407.7C619.043 407.7 617.583 408.3 617.583 409.44C617.583 410.58 619.043 411.16 621.383 411.16C623.723 411.16 625.183 410.58 625.183 409.44C625.183 408.3 623.723 407.7 621.383 407.7ZM631.422 413.96H648.182V416.08H631.422V413.96ZM638.482 411.18H641.122V414.78H638.482V411.18ZM633.442 410.34H646.282V412.44H633.442V410.34ZM633.442 406.06H646.182V408.14H636.082V411.68H633.442V406.06ZM639.742 417C643.742 417 646.162 418.22 646.162 420.4C646.162 422.58 643.742 423.8 639.742 423.8C635.742 423.8 633.302 422.58 633.302 420.4C633.302 418.22 635.742 417 639.742 417ZM639.742 419C637.262 419 636.002 419.46 636.002 420.4C636.002 421.36 637.262 421.78 639.742 421.78C642.222 421.78 643.482 421.36 643.482 420.4C643.482 419.46 642.222 419 639.742 419ZM661.68 405.26H664.32V423.78H661.68V405.26ZM663.72 412.48H667V414.7H663.72V412.48ZM649.72 408H660.5V410.12H649.72V408ZM655.14 411.16C657.84 411.16 659.84 413 659.84 415.58C659.84 418.16 657.84 420 655.14 420C652.44 420 650.44 418.16 650.44 415.58C650.44 413 652.44 411.16 655.14 411.16ZM655.14 413.32C653.88 413.32 652.98 414.16 652.98 415.58C652.98 417 653.88 417.84 655.14 417.84C656.4 417.84 657.3 417 657.3 415.58C657.3 414.16 656.4 413.32 655.14 413.32ZM653.8 405.56H656.46V408.8H653.8V405.56ZM680.958 405.26H683.638V423.78H680.958V405.26ZM675.498 407.18H678.138C678.138 412.84 676.218 417.48 669.638 420.66L668.258 418.54C673.578 415.98 675.498 412.62 675.498 407.66V407.18ZM669.238 407.18H676.758V409.28H669.238V407.18Z" fill="black" fill-opacity="0.5"/>
</g>
<path d="M185.211 23.4961V26.6895C185.211 30.3516 185.211 33.9844 184.244 39.4922L180.465 39.1699C181.461 34.043 181.461 30.2344 181.49 26.6895V26.4844H166.402V23.4961H185.211ZM188.199 41.1328V44.209H163.883V41.1328H188.199ZM210.963 21.0352V26.0156H214.566V29.0918H210.963V34.2188H207.213V21.0352H210.963ZM194.645 22.207V30.3809C197.853 30.3369 201.31 30.0439 204.986 29.3262L205.426 32.373C201.031 33.252 196.959 33.4863 193.18 33.457H190.895V22.207H194.645ZM210.963 35.3027V42.6562H197.047V44.4141H211.725V47.4023H193.326V39.8438H207.184V38.2324H193.268V35.3027H210.963ZM243.805 20.9766V26.7773H247.408V29.7656H243.805V35.4199H240.055V20.9766H243.805ZM243.805 36.5039V43.2422H229.83V44.7656H244.566V47.5195H226.168V40.6934H240.084V39.1992H226.109V36.5039H243.805ZM238.473 23.0273V25.8691H222.652V23.0273H228.717V20.8594H232.438V23.0273H238.473ZM230.562 26.5137C234.547 26.5137 237.125 28.2129 237.125 30.8789C237.125 33.6035 234.547 35.2441 230.562 35.2441C226.578 35.2441 223.941 33.6035 223.941 30.8789C223.941 28.2129 226.578 26.5137 230.562 26.5137ZM230.562 29.1504C228.717 29.1504 227.574 29.7656 227.604 30.8789C227.574 32.0215 228.717 32.5781 230.562 32.5781C232.408 32.5781 233.58 32.0215 233.58 30.8789C233.58 29.7656 232.408 29.1504 230.562 29.1504ZM256.168 21.8262C260.211 21.8262 263.287 24.3457 263.287 27.9199C263.287 31.4355 260.211 33.9844 256.168 33.9844C252.037 33.9844 248.99 31.4355 248.99 27.9199C248.99 24.3457 252.037 21.8262 256.168 21.8262ZM256.168 24.873C254.117 24.873 252.594 25.9863 252.623 27.9199C252.594 29.8242 254.117 30.9668 256.168 30.9668C258.189 30.9668 259.684 29.8242 259.684 27.9199C259.684 25.9863 258.189 24.873 256.168 24.873ZM270.904 21.0352V34.3945H267.154V21.0352H270.904ZM270.904 35.5078V42.7441H256.725V44.4727H271.637V47.4023H253.062V40.0195H267.184V38.3789H253.004V35.5078H270.904ZM280.133 42.832L277.613 51.1816H274.508L275.973 42.832H280.133ZM303.277 23.4375V41.3379H290.387V23.4375H303.277ZM294.137 26.3672V38.3789H299.645V26.3672H294.137ZM311.393 21.0352V47.7539H307.613V21.0352H311.393ZM336.559 21.8555V29.7949H321.646V32.0215H337.174V35.0098H317.867V26.9824H332.721V24.873H317.779V21.8555H336.559ZM339.371 37.002V39.9902H329V47.7539H325.25V39.9902H314.967V37.002H339.371ZM351.266 28.3008C351.266 32.6074 353.463 37.207 357.945 39.082L355.924 42.0117C352.774 40.6787 350.606 38.0273 349.42 34.7754C348.204 38.3057 345.992 41.2354 342.857 42.6855L340.719 39.7266C345.143 37.7637 347.428 32.8125 347.428 28.3008V26.6602H341.773V23.6133H356.832V26.6602H351.266V28.3008ZM363.248 21.0352V47.6953H359.469V21.0352H363.248ZM394.918 21.0352V26.1914H398.521V29.2676H394.918V34.3652H391.168V21.0352H394.918ZM387.359 22.2949V33.3691H374.557V22.2949H387.359ZM378.248 25.2246V30.4102H383.668V25.2246H378.248ZM394.918 35.4199V42.6855H380.943V44.4727H395.68V47.4023H377.281V39.9902H391.197V38.291H377.223V35.4199H394.918ZM421.666 23.3496V25.8691C421.666 29.209 421.666 32.959 420.582 38.6133L416.832 38.2324C417.843 33.1934 417.887 29.4434 417.916 26.3086H402.213V23.3496H421.666ZM424.01 41.3965V44.4434H399.693V41.3965H408.395V32.2266H412.115V41.3965H424.01ZM441.002 45H433.531V23.7891H441.09C447.477 23.7891 451.373 27.7734 451.373 34.3652C451.373 41.0156 447.477 45 441.002 45ZM437.926 41.2207H440.826C444.869 41.2207 446.979 39.1113 446.979 34.3652C446.979 29.6484 444.869 27.5684 440.855 27.5684H437.926V41.2207ZM456.91 45H452.164L459.518 23.7891H465.172L472.496 45H467.779L466.197 40.1074H458.521L456.91 45ZM459.635 36.6797H465.084L462.418 28.5645H462.271L459.635 36.6797ZM471.441 23.7891H476.393L481.285 32.9297H481.49L486.354 23.7891H491.305L483.57 37.4414V45H479.176V37.4414L471.441 23.7891ZM494.117 27.4219V23.7891H511.49V27.4219H504.986V45H500.621V27.4219H494.117ZM525.377 21.416C531.5 21.416 535.045 23.0273 535.074 25.957C535.045 28.916 531.5 30.5273 525.377 30.5273C519.225 30.5273 515.65 28.916 515.65 25.957C515.65 23.0273 519.225 21.416 525.377 21.416ZM525.377 24.1406C521.451 24.1406 519.547 24.7852 519.576 25.957C519.547 27.2754 521.451 27.7734 525.377 27.7734C529.332 27.7734 531.207 27.2754 531.207 25.957C531.207 24.7852 529.332 24.1406 525.377 24.1406ZM537.535 31.7871V34.7461H513.219V31.7871H537.535ZM534.576 36.2988V43.0957H519.723V44.707H535.279V47.5195H516.061V40.4883H530.885V39.0234H516.031V36.2988H534.576ZM568.385 21.0352V47.7539H564.605V21.0352H568.385ZM553.912 22.9102C557.926 22.9102 560.914 26.6016 560.914 32.4023C560.914 38.2617 557.926 41.9238 553.912 41.9238C549.811 41.9238 546.822 38.2617 546.852 32.4023C546.822 26.6016 549.811 22.9102 553.912 22.9102ZM553.912 26.2793C551.832 26.2793 550.455 28.4473 550.455 32.4023C550.455 36.3867 551.832 38.5254 553.912 38.5254C555.934 38.5254 557.311 36.3867 557.311 32.4023C557.311 28.4473 555.934 26.2793 553.912 26.2793ZM596.305 33.6621V36.6504H571.988V33.6621H577.467V30.4688C575.519 29.6045 574.42 28.2861 574.42 26.5723C574.42 23.3496 578.199 21.416 584.146 21.416C590.035 21.416 593.814 23.3496 593.844 26.5723C593.829 28.3008 592.687 29.6484 590.709 30.498V33.6621H596.305ZM584.117 38.0566C589.889 38.0566 593.375 39.7559 593.404 42.832C593.375 45.9668 589.889 47.666 584.117 47.666C578.258 47.666 574.771 45.9668 574.771 42.832C574.771 39.7559 578.258 38.0566 584.117 38.0566ZM584.117 40.8691C580.426 40.8691 578.551 41.5137 578.58 42.832C578.551 44.209 580.426 44.8828 584.117 44.8828C587.721 44.8828 589.625 44.209 589.654 42.832C589.625 41.5137 587.721 40.8691 584.117 40.8691ZM584.146 24.2871C580.367 24.2871 578.287 25.0781 578.316 26.5723C578.287 28.0371 580.367 28.7695 584.146 28.7695C587.867 28.7695 589.977 28.0371 589.977 26.5723C589.977 25.0781 587.867 24.2871 584.146 24.2871ZM581.246 33.6621H586.988V31.4355C586.109 31.5381 585.157 31.582 584.146 31.582C583.106 31.582 582.14 31.5381 581.246 31.4062V33.6621ZM618.951 21.0352V31.4648H622.877V34.541H618.951V47.6953H615.26V21.0352H618.951ZM613.443 25.0195V28.0078H597.77V25.0195H603.805V21.4453H607.555V25.0195H613.443ZM605.68 29.502C609.576 29.502 612.477 32.1387 612.477 35.8594C612.477 39.5801 609.576 42.2168 605.68 42.2168C601.754 42.2168 598.854 39.5801 598.854 35.8594C598.854 32.1387 601.754 29.502 605.68 29.502ZM605.68 32.5195C603.805 32.5488 602.428 33.8086 602.428 35.8594C602.428 37.9395 603.805 39.1699 605.68 39.1406C607.555 39.1699 608.902 37.9395 608.902 35.8594C608.902 33.8086 607.555 32.5488 605.68 32.5195ZM632.398 27.7441C632.398 32.0508 633.6 36.5039 637.232 38.8477L635.211 41.748C632.911 40.3564 631.446 38.0713 630.611 35.332C629.645 38.3496 628.048 40.8691 625.631 42.334L623.346 39.5801C627.301 37.1191 628.766 32.4316 628.766 27.9199V23.3203H632.398V27.7441ZM646.959 21.0352V47.6953H643.385V21.0352H646.959ZM641.363 21.416V46.4648H637.877V33.0762H634.42V30.0293H637.877V21.416H641.363ZM674.176 41.5137V44.5898H649.771V41.5137H655.221V34.9805C653.155 33.75 651.91 31.8604 651.91 29.502C651.91 25.1953 656.129 22.3242 661.93 22.3242C667.701 22.3242 671.949 25.1953 671.979 29.502C671.964 31.8018 670.748 33.6768 668.756 34.9219V41.5137H674.176ZM661.93 25.2832C658.121 25.2832 655.602 26.8066 655.602 29.502C655.602 32.1094 658.121 33.7207 661.93 33.7207C665.709 33.7207 668.258 32.1094 668.287 29.502C668.258 26.8066 665.709 25.2832 661.93 25.2832ZM658.912 41.5137H664.977V36.3281C664.024 36.5186 662.999 36.6211 661.93 36.6211C660.86 36.6211 659.85 36.5332 658.912 36.3281V41.5137Z" fill="black"/>
<path d="M330.687 404.55L336.087 402.477L336.126 402.461C336.472 402.308 336.763 402.054 336.962 401.732C337.16 401.41 337.257 401.036 337.239 400.659C337.221 400.281 337.089 399.918 336.861 399.616C336.633 399.315 336.319 399.089 335.961 398.969L317.202 392.844C316.873 392.736 316.522 392.722 316.186 392.802C315.85 392.882 315.543 393.054 315.298 393.298C315.054 393.543 314.882 393.85 314.802 394.186C314.722 394.522 314.736 394.873 314.844 395.202L320.969 413.961C321.085 414.323 321.308 414.641 321.61 414.871C321.913 415.102 322.278 415.234 322.658 415.25H322.749C323.113 415.251 323.47 415.145 323.774 414.946C324.079 414.746 324.318 414.461 324.461 414.126L324.477 414.087L326.55 408.687L332.562 414.7C332.737 414.874 332.943 415.013 333.171 415.107C333.398 415.201 333.642 415.25 333.888 415.25C334.135 415.25 334.379 415.201 334.606 415.107C334.834 415.013 335.04 414.874 335.214 414.7L336.7 413.214C336.874 413.04 337.013 412.834 337.107 412.606C337.201 412.379 337.25 412.135 337.25 411.888C337.25 411.642 337.201 411.398 337.107 411.171C337.013 410.943 336.874 410.737 336.7 410.562L330.687 404.55ZM333.888 413.375L327.875 407.362C327.659 407.146 327.393 406.985 327.101 406.895C326.809 406.805 326.499 406.788 326.199 406.844C325.898 406.901 325.616 407.031 325.377 407.222C325.138 407.413 324.95 407.659 324.828 407.94C324.828 407.953 324.818 407.966 324.813 407.977L322.744 413.368L316.625 394.625L335.357 400.742L329.973 402.809L329.935 402.825C329.655 402.946 329.408 403.135 329.217 403.374C329.026 403.613 328.897 403.895 328.84 404.195C328.783 404.496 328.8 404.805 328.89 405.098C328.981 405.39 329.141 405.655 329.357 405.871L335.375 411.888L333.888 413.375Z" fill="black"/>
<defs>
<filter id="filter0_d_744_2" x="37" y="171" width="306" height="66" filterUnits="userSpaceOnUse" color-interpolation-filters="sRGB">
<feFlood flood-opacity="0" result="BackgroundImageFix"/>
<feColorMatrix in="SourceAlpha" type="matrix" values="0 0 0 0 0 0 0 0 0 0 0 0 0 0 0 0 0 0 127 0" result="hardAlpha"/>
<feOffset/>
<feGaussianBlur stdDeviation="1.5"/>
<feComposite in2="hardAlpha" operator="out"/>
<feColorMatrix type="matrix" values="0 0 0 0 0 0 0 0 0 0 0 0 0 0 0 0 0 0 0.25 0"/>
<feBlend mode="normal" in2="BackgroundImageFix" result="effect1_dropShadow_744_2"/>
<feBlend mode="normal" in="SourceGraphic" in2="effect1_dropShadow_744_2" result="shape"/>
</filter>
<filter id="filter1_d_744_2" x="37" y="241" width="306" height="66" filterUnits="userSpaceOnUse" color-interpolation-filters="sRGB">
<feFlood flood-opacity="0" result="BackgroundImageFix"/>
<feColorMatrix in="SourceAlpha" type="matrix" values="0 0 0 0 0 0 0 0 0 0 0 0 0 0 0 0 0 0 127 0" result="hardAlpha"/>
<feOffset/>
<feGaussianBlur stdDeviation="1.5"/>
<feComposite in2="hardAlpha" operator="out"/>
<feColorMatrix type="matrix" values="0 0 0 0 0 0 0 0 0 0 0 0 0 0 0 0 0 0 0.25 0"/>
<feBlend mode="normal" in2="BackgroundImageFix" result="effect1_dropShadow_744_2"/>
<feBlend mode="normal" in="SourceGraphic" in2="effect1_dropShadow_744_2" result="shape"/>
</filter>
<filter id="filter2_d_744_2" x="37" y="311" width="306" height="66" filterUnits="userSpaceOnUse" color-interpolation-filters="sRGB">
<feFlood flood-opacity="0" result="BackgroundImageFix"/>
<feColorMatrix in="SourceAlpha" type="matrix" values="0 0 0 0 0 0 0 0 0 0 0 0 0 0 0 0 0 0 127 0" result="hardAlpha"/>
<feOffset/>
<feGaussianBlur stdDeviation="1.5"/>
<feComposite in2="hardAlpha" operator="out"/>
<feColorMatrix type="matrix" values="0 0 0 0 0 0 0 0 0 0 0 0 0 0 0 0 0 0 0.25 0"/>
<feBlend mode="normal" in2="BackgroundImageFix" result="effect1_dropShadow_744_2"/>
<feBlend mode="normal" in="SourceGraphic" in2="effect1_dropShadow_744_2" result="shape"/>
</filter>
<filter id="filter3_d_744_2" x="37" y="381" width="306" height="66" filterUnits="userSpaceOnUse" color-interpolation-filters="sRGB">
<feFlood flood-opacity="0" result="BackgroundImageFix"/>
<feColorMatrix in="SourceAlpha" type="matrix" values="0 0 0 0 0 0 0 0 0 0 0 0 0 0 0 0 0 0 127 0" result="hardAlpha"/>
<feOffset/>
<feGaussianBlur stdDeviation="1.5"/>
<feComposite in2="hardAlpha" operator="out"/>
<feColorMatrix type="matrix" values="0 0 0 0 0 0 0 0 0 0 0 0 0 0 0 0 0 0 0.25 0"/>
<feBlend mode="normal" in2="BackgroundImageFix" result="effect1_dropShadow_744_2"/>
<feBlend mode="normal" in="SourceGraphic" in2="effect1_dropShadow_744_2" result="shape"/>
</filter>
<filter id="filter4_d_744_2" x="496" y="171" width="306" height="66" filterUnits="userSpaceOnUse" color-interpolation-filters="sRGB">
<feFlood flood-opacity="0" result="BackgroundImageFix"/>
<feColorMatrix in="SourceAlpha" type="matrix" values="0 0 0 0 0 0 0 0 0 0 0 0 0 0 0 0 0 0 127 0" result="hardAlpha"/>
<feOffset/>
<feGaussianBlur stdDeviation="1.5"/>
<feComposite in2="hardAlpha" operator="out"/>
<feColorMatrix type="matrix" values="0 0 0 0 0 0 0 0 0 0 0 0 0 0 0 0 0 0 0.25 0"/>
<feBlend mode="normal" in2="BackgroundImageFix" result="effect1_dropShadow_744_2"/>
<feBlend mode="normal" in="SourceGraphic" in2="effect1_dropShadow_744_2" result="shape"/>
</filter>
<filter id="filter5_d_744_2" x="496" y="241" width="306" height="66" filterUnits="userSpaceOnUse" color-interpolation-filters="sRGB">
<feFlood flood-opacity="0" result="BackgroundImageFix"/>
<feColorMatrix in="SourceAlpha" type="matrix" values="0 0 0 0 0 0 0 0 0 0 0 0 0 0 0 0 0 0 127 0" result="hardAlpha"/>
<feOffset/>
<feGaussianBlur stdDeviation="1.5"/>
<feComposite in2="hardAlpha" operator="out"/>
<feColorMatrix type="matrix" values="0 0 0 0 0 0 0 0 0 0 0 0 0 0 0 0 0 0 0.25 0"/>
<feBlend mode="normal" in2="BackgroundImageFix" result="effect1_dropShadow_744_2"/>
<feBlend mode="normal" in="SourceGraphic" in2="effect1_dropShadow_744_2" result="shape"/>
</filter>
<filter id="filter6_d_744_2" x="496" y="311" width="306" height="66" filterUnits="userSpaceOnUse" color-interpolation-filters="sRGB">
<feFlood flood-opacity="0" result="BackgroundImageFix"/>
<feColorMatrix in="SourceAlpha" type="matrix" values="0 0 0 0 0 0 0 0 0 0 0 0 0 0 0 0 0 0 127 0" result="hardAlpha"/>
<feOffset/>
<feGaussianBlur stdDeviation="1.5"/>
<feComposite in2="hardAlpha" operator="out"/>
<feColorMatrix type="matrix" values="0 0 0 0 0 0 0 0 0 0 0 0 0 0 0 0 0 0 0.25 0"/>
<feBlend mode="normal" in2="BackgroundImageFix" result="effect1_dropShadow_744_2"/>
<feBlend mode="normal" in="SourceGraphic" in2="effect1_dropShadow_744_2" result="shape"/>
</filter>
<filter id="filter7_d_744_2" x="496" y="381" width="306" height="66" filterUnits="userSpaceOnUse" color-interpolation-filters="sRGB">
<feFlood flood-opacity="0" result="BackgroundImageFix"/>
<feColorMatrix in="SourceAlpha" type="matrix" values="0 0 0 0 0 0 0 0 0 0 0 0 0 0 0 0 0 0 127 0" result="hardAlpha"/>
<feOffset/>
<feGaussianBlur stdDeviation="1.5"/>
<feComposite in2="hardAlpha" operator="out"/>
<feColorMatrix type="matrix" values="0 0 0 0 0 0 0 0 0 0 0 0 0 0 0 0 0 0 0.25 0"/>
<feBlend mode="normal" in2="BackgroundImageFix" result="effect1_dropShadow_744_2"/>
<feBlend mode="normal" in="SourceGraphic" in2="effect1_dropShadow_744_2" result="shape"/>
</filter>
</defs>
</svg>
