<svg width="16" height="16" viewBox="0 0 16 16" fill="none" xmlns="http://www.w3.org/2000/svg">
<path d="M14.7384 1.30817C13.8849 0.454598 12.6795 0.320312 11.2563 0.320312H4.72736C3.32129 0.320312 2.11593 0.454241 1.262 1.30817C0.408429 2.16174 0.282715 3.35888 0.282715 4.75674V11.2189C0.282715 12.6503 0.408072 13.8389 1.262 14.6925C2.11557 15.546 3.32129 15.6803 4.75236 15.6803H11.2563C12.6795 15.6803 13.8849 15.5464 14.7384 14.6925C15.5924 13.8389 15.7177 12.6503 15.7177 11.2189V4.78174C15.7177 3.35031 15.5924 2.15317 14.7384 1.30817ZM14.3702 4.54746V11.445C14.3702 12.3153 14.2613 13.2025 13.7595 13.7132C13.2488 14.2153 12.3445 14.3325 11.4824 14.3325H4.51807C3.65593 14.3325 2.752 14.2153 2.24986 13.7132C1.73914 13.2025 1.63021 12.3153 1.63021 11.4446V4.57281C1.63021 3.69424 1.73914 2.78996 2.24129 2.28781C2.752 1.7771 3.66414 1.66853 4.54307 1.66853H11.4824C12.3445 1.66853 13.2484 1.78567 13.7591 2.28781C14.2613 2.79853 14.3702 3.68531 14.3702 4.54746ZM8.00021 12.466C8.33521 12.466 8.60307 12.2064 8.60307 11.8717V8.59888H11.8759C12.2106 8.59888 12.4784 8.31424 12.4784 8.0046C12.4784 7.67817 12.2106 7.40174 11.8759 7.40174H8.60307V4.12067C8.60307 3.78567 8.33521 3.52638 8.00021 3.52638C7.92185 3.52523 7.84406 3.53981 7.77143 3.56927C7.69881 3.59872 7.63283 3.64246 7.57742 3.69787C7.522 3.75329 7.47827 3.81926 7.44881 3.89189C7.41936 3.96451 7.40477 4.04231 7.40593 4.12067V7.40174H4.13307C3.79807 7.40174 3.53021 7.67817 3.53021 8.0046C3.53021 8.31424 3.79807 8.59888 4.13307 8.59888H7.40593V11.8717C7.40593 12.2064 7.66557 12.466 8.00021 12.466Z" fill="black"/>
</svg>
