<svg width="18" height="16" viewBox="0 0 18 16" fill="none" xmlns="http://www.w3.org/2000/svg">
<path d="M7.39722 0.210921C7.53147 0.0775705 7.71248 0.00190326 7.90169 3.54162e-05C8.0909 -0.00183243 8.27337 0.0702468 8.41022 0.200921C8.47724 0.264427 8.53082 0.340735 8.56781 0.425325C8.60479 0.509915 8.62443 0.601068 8.62554 0.693384C8.62666 0.785699 8.60925 0.877301 8.57432 0.962763C8.5394 1.04823 8.48768 1.12581 8.42222 1.19092L1.72223 7.89792L8.79222 14.8059C8.85845 14.8702 8.9111 14.9472 8.94705 15.0322C8.983 15.1172 9.00152 15.2086 9.00152 15.3009C9.00152 15.3932 8.983 15.4846 8.94705 15.5696C8.9111 15.6547 8.85845 15.7316 8.79222 15.7959C8.65659 15.9274 8.47512 16.0009 8.28623 16.0009C8.09733 16.0009 7.91585 15.9274 7.78022 15.7959L0.210226 8.40092C0.144438 8.33702 0.0920491 8.26065 0.0561221 8.17626C0.0201952 8.09188 0.00145099 8.00118 0.000985453 7.90947C0.000519911 7.81776 0.0183424 7.72688 0.0534108 7.64213C0.0884793 7.55739 0.14009 7.48049 0.205226 7.41592L7.39722 0.210921ZM16.3972 0.210921C16.5314 0.0778682 16.7122 0.00238909 16.9012 0.00052179C17.0902 -0.00134551 17.2724 0.0705462 17.4092 0.200921C17.4762 0.264427 17.5298 0.340735 17.5668 0.425325C17.6038 0.509915 17.6234 0.601068 17.6245 0.693384C17.6257 0.785699 17.6082 0.877301 17.5733 0.962763C17.5384 1.04823 17.4867 1.12581 17.4212 1.19092L10.7212 7.89792L17.7912 14.8059C17.8574 14.8702 17.9101 14.9472 17.946 15.0322C17.982 15.1172 18.0005 15.2086 18.0005 15.3009C18.0005 15.3932 17.982 15.4846 17.946 15.5696C17.9101 15.6547 17.8574 15.7316 17.7912 15.7959C17.6556 15.9274 17.4741 16.0009 17.2852 16.0009C17.0963 16.0009 16.9149 15.9274 16.7792 15.7959L9.21023 8.40092C9.14444 8.33702 9.09205 8.26065 9.05612 8.17626C9.0202 8.09188 9.00145 8.00118 9.00099 7.90947C9.00052 7.81776 9.01834 7.72688 9.05341 7.64213C9.08848 7.55739 9.14009 7.48049 9.20522 7.41592L16.3972 0.210921Z" fill="black"/>
</svg>
