<svg width="18" height="13" viewBox="0 0 18 13" fill="none" xmlns="http://www.w3.org/2000/svg">
<path fill-rule="evenodd" clip-rule="evenodd" d="M17.0489 1.07647C17.2441 1.27181 17.3538 1.53672 17.3538 1.81293C17.3538 2.08914 17.2441 2.35405 17.0489 2.54939L7.15302 12.4452C6.95768 12.6405 6.69277 12.7502 6.41656 12.7502C6.14035 12.7502 5.87544 12.6405 5.6801 12.4452L0.992604 7.75772C0.802856 7.56126 0.697861 7.29813 0.700235 7.02501C0.702608 6.75189 0.812159 6.49063 1.00529 6.29749C1.19843 6.10436 1.45969 5.99481 1.73281 5.99243C2.00593 5.99006 2.26906 6.09506 2.46552 6.2848L6.41656 10.2358L15.5759 1.07647C15.7713 0.881188 16.0362 0.771484 16.3124 0.771484C16.5886 0.771484 16.8535 0.881188 17.0489 1.07647Z" fill="black" fill-opacity="0.5"/>
</svg>
