<svg width="19" height="16" viewBox="0 0 19 16" fill="none" xmlns="http://www.w3.org/2000/svg">
<path fill-rule="evenodd" clip-rule="evenodd" d="M15.5351 11.7002L18.1768 14.3419L17.2934 15.226L3.1501 1.08436L4.03343 0.200195L6.31676 2.48186C7.42114 2.07368 8.58937 1.86543 9.76676 1.86686C13.7734 1.86686 17.2434 4.2402 18.9334 7.7002C18.1557 9.29852 16.9868 10.6744 15.5351 11.7002ZM8.78676 4.9527L12.5143 8.68019C12.7002 8.16006 12.7347 7.59782 12.6136 7.05888C12.4925 6.51994 12.2208 6.02647 11.8302 5.63588C11.4397 5.24529 10.9462 4.97365 10.4072 4.85255C9.86831 4.73146 9.30606 4.7659 8.78593 4.95186L8.78676 4.9527ZM13.2176 12.9194C12.1129 13.3274 10.9444 13.5353 9.76676 13.5335C5.7601 13.5335 2.2901 11.1602 0.600098 7.7002C1.37782 6.10187 2.54677 4.72596 3.99843 3.7002L7.01926 6.7202C6.8333 7.24033 6.79886 7.80257 6.91996 8.34151C7.04105 8.88045 7.31269 9.37392 7.70328 9.76451C8.09387 10.1551 8.58734 10.4267 9.12628 10.5478C9.66522 10.6689 10.2275 10.6345 10.7476 10.4485L13.2176 12.9185V12.9194Z" fill="black" fill-opacity="0.7"/>
</svg>
