<svg width="128" height="256" viewBox="0 0 128 256" fill="none" xmlns="http://www.w3.org/2000/svg">
<path fill-rule="evenodd" clip-rule="evenodd" d="M76.846 80C77.3716 79.9997 77.8921 80.1031 78.3778 80.3041C78.8635 80.5051 79.3048 80.7999 79.6764 81.1716C80.0481 81.5432 80.3429 81.9845 80.5439 82.4702C80.7449 82.9559 80.8483 83.4764 80.848 84.002V107.6C80.8484 108.126 80.7452 108.646 80.5442 109.132C80.3432 109.618 80.0485 110.059 79.6768 110.431C79.3051 110.803 78.8638 111.098 78.378 111.299C77.8923 111.5 77.3717 111.603 76.846 111.603H53.001C52.4753 111.603 51.9547 111.5 51.469 111.298C50.9834 111.097 50.5421 110.802 50.1705 110.43C49.7989 110.058 49.5043 109.617 49.3034 109.131C49.1026 108.645 48.9995 108.125 49 107.599V84.002C48.9997 83.4765 49.103 82.956 49.304 82.4704C49.505 81.9848 49.7997 81.5436 50.1712 81.1719C50.5428 80.8003 50.984 80.5055 51.4695 80.3044C51.955 80.1033 52.4755 79.9999 53.001 80H76.846ZM76.846 144C77.3716 144 77.8921 144.103 78.3778 144.304C78.8635 144.505 79.3048 144.8 79.6764 145.172C80.0481 145.543 80.3429 145.985 80.5439 146.47C80.7449 146.956 80.8483 147.476 80.848 148.002V171.6C80.8484 172.126 80.7452 172.646 80.5442 173.132C80.3432 173.618 80.0485 174.059 79.6768 174.431C79.3051 174.803 78.8638 175.098 78.378 175.299C77.8923 175.5 77.3717 175.603 76.846 175.603H53.001C52.4753 175.603 51.9547 175.5 51.469 175.298C50.9834 175.097 50.5421 174.802 50.1705 174.43C49.7989 174.059 49.5043 173.617 49.3034 173.131C49.1026 172.645 48.9995 172.125 49 171.599V148.002C48.9997 147.476 49.103 146.956 49.304 146.47C49.505 145.985 49.7997 145.544 50.1712 145.172C50.5428 144.8 50.984 144.505 51.4695 144.304C51.955 144.103 52.4755 144 53.001 144H76.846Z" fill="black"/>
</svg>
