<svg width="16" height="18" viewBox="0 0 16 18" fill="none" xmlns="http://www.w3.org/2000/svg">
<path d="M14.875 3.75H12.0625V2.8125C12.0625 2.23234 11.832 1.67594 11.4218 1.2657C11.0116 0.855468 10.4552 0.625 9.875 0.625H6.125C5.54484 0.625 4.98844 0.855468 4.5782 1.2657C4.16797 1.67594 3.9375 2.23234 3.9375 2.8125V3.75H1.125C0.87636 3.75 0.637903 3.84877 0.462087 4.02459C0.286272 4.2004 0.1875 4.43886 0.1875 4.6875C0.1875 4.93614 0.286272 5.1746 0.462087 5.35041C0.637903 5.52623 0.87636 5.625 1.125 5.625H1.4375V16.25C1.4375 16.6644 1.60212 17.0618 1.89515 17.3549C2.18817 17.6479 2.5856 17.8125 3 17.8125H13C13.4144 17.8125 13.8118 17.6479 14.1049 17.3549C14.3979 17.0618 14.5625 16.6644 14.5625 16.25V5.625H14.875C15.1236 5.625 15.3621 5.52623 15.5379 5.35041C15.7137 5.1746 15.8125 4.93614 15.8125 4.6875C15.8125 4.43886 15.7137 4.2004 15.5379 4.02459C15.3621 3.84877 15.1236 3.75 14.875 3.75ZM5.8125 2.8125C5.8125 2.72962 5.84542 2.65013 5.90403 2.59153C5.96263 2.53292 6.04212 2.5 6.125 2.5H9.875C9.95788 2.5 10.0374 2.53292 10.096 2.59153C10.1546 2.65013 10.1875 2.72962 10.1875 2.8125V3.75H5.8125V2.8125ZM12.6875 15.9375H3.3125V5.625H12.6875V15.9375ZM7.0625 8.125V13.125C7.0625 13.3736 6.96373 13.6121 6.78791 13.7879C6.6121 13.9637 6.37364 14.0625 6.125 14.0625C5.87636 14.0625 5.6379 13.9637 5.46209 13.7879C5.28627 13.6121 5.1875 13.3736 5.1875 13.125V8.125C5.1875 7.87636 5.28627 7.6379 5.46209 7.46209C5.6379 7.28627 5.87636 7.1875 6.125 7.1875C6.37364 7.1875 6.6121 7.28627 6.78791 7.46209C6.96373 7.6379 7.0625 7.87636 7.0625 8.125ZM10.8125 8.125V13.125C10.8125 13.3736 10.7137 13.6121 10.5379 13.7879C10.3621 13.9637 10.1236 14.0625 9.875 14.0625C9.62636 14.0625 9.3879 13.9637 9.21209 13.7879C9.03627 13.6121 8.9375 13.3736 8.9375 13.125V8.125C8.9375 7.87636 9.03627 7.6379 9.21209 7.46209C9.3879 7.28627 9.62636 7.1875 9.875 7.1875C10.1236 7.1875 10.3621 7.28627 10.5379 7.46209C10.7137 7.6379 10.8125 7.87636 10.8125 8.125Z" fill="black"/>
</svg>
