<svg width="18" height="18" viewBox="0 0 18 18" fill="none" xmlns="http://www.w3.org/2000/svg">
<path d="M5.43317 12.7128L6.90067 12.2895L15.7365 3.3478C15.8062 3.27638 15.845 3.18041 15.8445 3.08062C15.8441 2.98083 15.8044 2.88523 15.734 2.81447L15.2048 2.27947C15.1706 2.24433 15.1298 2.21636 15.0847 2.19718C15.0395 2.178 14.9911 2.16801 14.942 2.16777C14.893 2.16754 14.8444 2.17708 14.7991 2.19582C14.7538 2.21457 14.7127 2.24216 14.6782 2.27697L5.86567 11.1953L5.43317 12.7128ZM16.2523 1.21947L16.7815 1.7553C17.5115 2.49447 17.5182 3.68696 16.7948 4.41863L7.68984 13.6336L4.55317 14.537C4.36167 14.5906 4.15672 14.566 3.98331 14.4687C3.80989 14.3713 3.68217 14.2092 3.62817 14.0178C3.58799 13.8802 3.58741 13.734 3.6265 13.5961L4.539 10.3961L13.6198 1.2053C13.7925 1.03143 13.9981 0.893683 14.2245 0.800092C14.451 0.706501 14.6938 0.658939 14.9389 0.66018C15.1839 0.661421 15.4263 0.71144 15.6518 0.807321C15.8773 0.903201 16.0814 1.04386 16.2523 1.21947ZM6.65317 2.1803C7.0665 2.1803 7.4015 2.51947 7.4015 2.9378C7.40216 3.03669 7.38332 3.13474 7.34606 3.22634C7.3088 3.31795 7.25385 3.40131 7.18435 3.47166C7.11485 3.54201 7.03216 3.59797 6.94102 3.63635C6.84987 3.67472 6.75206 3.69475 6.65317 3.6953H3.65984C2.83317 3.6953 2.16317 4.37363 2.16317 5.20947V14.2978C2.16317 15.1345 2.83317 15.8128 3.65984 15.8128H12.6398C13.4665 15.8128 14.1373 15.1345 14.1373 14.2978V11.2686C14.1373 10.8503 14.4723 10.5111 14.8857 10.5111C15.299 10.5111 15.634 10.8503 15.634 11.2695V14.2978C15.634 15.9711 14.2932 17.3278 12.6398 17.3278H3.65984C2.0065 17.3278 0.666504 15.9711 0.666504 14.2978V5.20947C0.666504 3.53697 2.0065 2.1803 3.65984 2.1803H6.65317Z" fill="black"/>
</svg>
