<svg width="76" height="19" viewBox="0 0 76 19" fill="none" xmlns="http://www.w3.org/2000/svg">
<path d="M33.1074 13.2188V14.8594H20.0918V13.2188H25.5762V11.0781H21.5918V6.29688H29.6387V4.73438H21.5762V3.14062H31.6074V7.85938H23.5918V9.45312H31.9355V11.0781H27.5605V13.2188H33.1074ZM45.2949 3.53125V5.23438C45.2949 7.1875 45.2949 9.125 44.7793 12.0625L42.7637 11.8906C43.2949 9.15625 43.2949 7.125 43.3105 5.23438V5.125H35.2637V3.53125H45.2949ZM46.8887 12.9375V14.5781H33.9199V12.9375H46.8887ZM51.5762 3.21875C53.748 3.21875 55.3105 5.1875 55.3262 8.28125C55.3105 11.4062 53.748 13.3594 51.5762 13.3594C49.4043 13.3594 47.8105 11.4062 47.8262 8.28125C47.8105 5.1875 49.4043 3.21875 51.5762 3.21875ZM51.5762 5.01562C50.4824 5.01562 49.748 6.17188 49.748 8.28125C49.748 10.4062 50.4824 11.5469 51.5762 11.5469C52.6855 11.5469 53.4043 10.4062 53.4199 8.28125C53.4043 6.17188 52.6855 5.01562 51.5762 5.01562ZM58.9668 2.21875V7.57812H61.0605V9.23438H58.9668V16.4375H56.9668V2.21875H58.9668ZM74.5449 8.45312V10.0938H69.0293V11.4375H67.0449V10.0938H61.5762V8.45312H74.5449ZM69.0449 12.2656C69.0449 13.4375 70.4824 14.6094 73.623 14.875L73.0137 16.375C70.584 16.1562 68.873 15.3594 68.0137 14.2031C67.1465 15.3359 65.4668 16.1562 63.0762 16.375L62.4043 14.875C65.498 14.6094 66.9824 13.375 66.998 12.2656V11.9844H69.0449V12.2656ZM68.0605 2.39062C71.248 2.39062 73.2168 3.35938 73.2324 5.0625C73.2168 6.76562 71.248 7.75 68.0605 7.75C64.8887 7.75 62.873 6.76562 62.873 5.0625C62.873 3.35938 64.8887 2.39062 68.0605 2.39062ZM68.0605 3.85938C66.0449 3.85938 64.9355 4.28125 64.9512 5.0625C64.9355 5.82812 66.0449 6.23438 68.0605 6.23438C70.0449 6.23438 71.1699 5.82812 71.1699 5.0625C71.1699 4.28125 70.0449 3.85938 68.0605 3.85938Z" fill="black"/>
<path d="M13.1595 15.8333H8.15951C7.70117 15.8333 7.32617 16.2083 7.32617 16.6667C7.32617 17.125 7.70117 17.5 8.15951 17.5H13.1595C14.0762 17.5 14.8262 16.75 14.8262 15.8333L14.8262 4.16667C14.8262 3.25 14.0762 2.5 13.1595 2.5H8.15951C7.70117 2.5 7.32617 2.875 7.32617 3.33333C7.32617 3.79167 7.70117 4.16667 8.15951 4.16667H13.1595L13.1595 15.8333Z" fill="black"/>
<path d="M0.11784 10.2909L2.44284 12.6159C2.5008 12.6754 2.5752 12.7163 2.65653 12.7333C2.73786 12.7504 2.82242 12.7427 2.89938 12.7114C2.97635 12.6801 3.04221 12.6265 3.08855 12.5575C3.13489 12.4886 3.1596 12.4073 3.15951 12.3242V10.8326H8.99284C9.45117 10.8326 9.82617 10.4576 9.82617 9.99923C9.82617 9.5409 9.45117 9.1659 8.99284 9.1659H3.15951L3.15951 7.67423C3.15951 7.29923 2.70951 7.1159 2.45117 7.38257L0.126173 9.70757C-0.040493 9.8659 -0.040494 10.1326 0.11784 10.2909Z" fill="black"/>
</svg>
