<svg width="30" height="19" viewBox="0 0 30 19" fill="none" xmlns="http://www.w3.org/2000/svg">
<path fill-rule="evenodd" clip-rule="evenodd" d="M17.2084 17.4578C16.6224 18.043 15.8282 18.3717 15 18.3717C14.1719 18.3717 13.3776 18.043 12.7917 17.4578L1.0042 5.67448C0.418241 5.08825 0.0891602 4.29324 0.0893556 3.46437C0.0895509 2.6355 0.419006 1.84066 1.00524 1.25469C1.59148 0.66873 2.38648 0.339648 3.21536 0.339844C4.04423 0.340039 4.83907 0.669495 5.42504 1.25573L15 10.8307L24.575 1.25573C25.1642 0.686206 25.9534 0.370846 26.7728 0.377578C27.5921 0.384309 28.3761 0.712591 28.9558 1.29172C29.5354 1.87085 29.8645 2.65449 29.872 3.47385C29.8795 4.29322 29.5648 5.08275 28.9959 5.6724L17.2105 17.4599L17.2084 17.4578Z" fill="black"/>
</svg>
