<svg width="89" height="19" viewBox="0 0 89 19" fill="none" xmlns="http://www.w3.org/2000/svg">
<path d="M26.7993 3.5625V12.9688H19.9712V3.5625H26.7993ZM21.9399 5.125V11.3906H24.8149V5.125H21.9399ZM30.7368 2.21875V7.57812H32.8306V9.23438H30.7368V16.4375H28.7368V2.21875H30.7368ZM45.2524 2.21875V16.4688H43.2368V2.21875H45.2524ZM37.5337 3.21875C39.6743 3.21875 41.2681 5.1875 41.2681 8.28125C41.2681 11.4062 39.6743 13.3594 37.5337 13.3594C35.3462 13.3594 33.7524 11.4062 33.7681 8.28125C33.7524 5.1875 35.3462 3.21875 37.5337 3.21875ZM37.5337 5.01562C36.4243 5.01562 35.6899 6.17188 35.6899 8.28125C35.6899 10.4062 36.4243 11.5469 37.5337 11.5469C38.6118 11.5469 39.3462 10.4062 39.3462 8.28125C39.3462 6.17188 38.6118 5.01562 37.5337 5.01562ZM59.6118 2.21875V16.4375H57.6899V2.21875H59.6118ZM56.7368 2.5V15.7656H54.8462V9.17188H53.4712V7.39062H54.8462V2.5H56.7368ZM53.7993 3.82812V5.4375H52.8931V11.3438C53.2915 11.3125 53.6743 11.2734 54.0337 11.2188L54.1743 12.6562C51.9243 13.1406 49.0181 13.1875 47.2368 13.1875L47.0181 11.5469H48.2056V5.4375H47.2837V3.82812H53.7993ZM49.9712 11.5156L51.0806 11.4688V5.4375H49.9712V11.5156ZM72.9087 2.21875V16.4688H70.8931V2.21875H72.9087ZM65.1899 3.21875C67.3306 3.21875 68.9243 5.1875 68.9243 8.28125C68.9243 11.4062 67.3306 13.3594 65.1899 13.3594C63.0024 13.3594 61.4087 11.4062 61.4243 8.28125C61.4087 5.1875 63.0024 3.21875 65.1899 3.21875ZM65.1899 5.01562C64.0806 5.01562 63.3462 6.17188 63.3462 8.28125C63.3462 10.4062 64.0806 11.5469 65.1899 11.5469C66.2681 11.5469 67.0024 10.4062 67.0024 8.28125C67.0024 6.17188 66.2681 5.01562 65.1899 5.01562ZM80.3462 6.09375C80.3462 8.39062 81.5181 10.8438 83.9087 11.8438L82.8306 13.4062C81.1509 12.6953 79.9946 11.2812 79.3618 9.54688C78.7134 11.4297 77.5337 12.9922 75.8618 13.7656L74.7212 12.1875C77.0806 11.1406 78.2993 8.5 78.2993 6.09375V5.21875H75.2837V3.59375H83.3149V5.21875H80.3462V6.09375ZM86.7368 2.21875V16.4375H84.7212V2.21875H86.7368Z" fill="black"/>
<path d="M6.66683 8.00065C8.50778 8.00065 10.0002 6.50827 10.0002 4.66732C10.0002 2.82637 8.50778 1.33398 6.66683 1.33398C4.82588 1.33398 3.3335 2.82637 3.3335 4.66732C3.3335 6.50827 4.82588 8.00065 6.66683 8.00065Z" fill="black"/>
<path d="M13.3333 14.25C13.3333 16.3208 13.3333 18 6.66667 18C0 18 0 16.3208 0 14.25C0 12.1792 2.985 10.5 6.66667 10.5C10.3483 10.5 13.3333 12.1792 13.3333 14.25Z" fill="black"/>
</svg>
