<svg width="256" height="256" viewBox="0 0 256 256" fill="none" xmlns="http://www.w3.org/2000/svg">
<path d="M247.31 124.76C246.96 123.97 238.49 105.18 219.66 86.35C194.57 61.26 162.88 48 128 48C93.1199 48 61.4299 61.26 36.3399 86.35C17.5099 105.18 8.9999 124 8.6899 124.76C8.23504 125.783 8 126.89 8 128.01C8 129.13 8.23504 130.237 8.6899 131.26C9.0399 132.05 17.5099 150.83 36.3399 169.66C61.4299 194.74 93.1199 208 128 208C162.88 208 194.57 194.74 219.66 169.66C238.49 150.83 246.96 132.05 247.31 131.26C247.765 130.237 248 129.13 248 128.01C248 126.89 247.765 125.783 247.31 124.76ZM128 168C120.089 168 112.355 165.654 105.777 161.259C99.1991 156.864 94.0722 150.616 91.0447 143.307C88.0172 135.998 87.2251 127.956 88.7685 120.196C90.3119 112.437 94.1215 105.31 99.7156 99.7157C105.31 94.1216 112.437 90.312 120.196 88.7686C127.956 87.2252 135.998 88.0173 143.307 91.0448C150.616 94.0723 156.863 99.1992 161.259 105.777C165.654 112.355 168 120.089 168 128C168 138.609 163.786 148.783 156.284 156.284C148.783 163.786 138.609 168 128 168Z" fill="#555555"/>
</svg>
