<svg width="49" height="19" viewBox="0 0 49 19" fill="none" xmlns="http://www.w3.org/2000/svg">
<path fill-rule="evenodd" clip-rule="evenodd" d="M9.98667 2.11768C10.0592 2.25852 10.0775 2.43935 10.1133 2.80102C10.1817 3.48435 10.2158 3.82602 10.3592 4.01435C10.4485 4.13128 10.5671 4.22249 10.7031 4.2787C10.8391 4.3349 10.9875 4.3541 11.1333 4.33435C11.3667 4.30352 11.6333 4.08602 12.165 3.65102C12.4458 3.42018 12.5867 3.30518 12.7375 3.25685C12.9296 3.19546 13.1375 3.20583 13.3225 3.28602C13.4683 3.34935 13.5975 3.47768 13.8533 3.73435L14.5983 4.47935C14.855 4.73602 14.9833 4.86435 15.0467 5.01018C15.1269 5.19523 15.1372 5.40308 15.0758 5.59518C15.0275 5.74602 14.9125 5.88685 14.6825 6.16768C14.2467 6.70018 14.0292 6.96602 13.9975 7.20018C13.978 7.34593 13.9974 7.49424 14.0537 7.63007C14.1101 7.76589 14.2014 7.88438 14.3183 7.97352C14.5058 8.11685 14.8483 8.15102 15.5325 8.21935C15.8933 8.25518 16.0742 8.27352 16.2158 8.34602C16.3945 8.43868 16.5337 8.5929 16.6075 8.78018C16.6667 8.92768 16.6667 9.10935 16.6667 9.47268V10.526C16.6667 10.8893 16.6667 11.071 16.6083 11.2177C16.5343 11.4056 16.3945 11.5601 16.215 11.6527C16.0742 11.7252 15.8933 11.7435 15.5317 11.7793C14.8483 11.8477 14.5067 11.8818 14.3183 12.0252C14.2014 12.1145 14.1102 12.2332 14.054 12.3691C13.9978 12.5051 13.9786 12.6535 13.9983 12.7993C14.03 13.0327 14.2475 13.2993 14.6825 13.831C14.9125 14.1118 15.0275 14.2518 15.0758 14.4035C15.1372 14.5956 15.1269 14.8035 15.0467 14.9885C14.9833 15.1343 14.855 15.2627 14.5983 15.5193L13.8533 16.2635C13.5967 16.521 13.4683 16.6493 13.3225 16.7118C13.1375 16.792 12.9296 16.8024 12.7375 16.741C12.5867 16.6927 12.4458 16.5777 12.165 16.3477C11.6325 15.9127 11.3667 15.6952 11.1333 15.6643C10.9875 15.6446 10.8391 15.6638 10.7031 15.72C10.5671 15.7762 10.4485 15.8674 10.3592 15.9843C10.2158 16.1718 10.1817 16.5135 10.1133 17.1977C10.0775 17.5593 10.0592 17.7402 9.98667 17.881C9.89432 18.0604 9.74006 18.2001 9.5525 18.2743C9.405 18.3327 9.22333 18.3327 8.86 18.3327H7.80667C7.44333 18.3327 7.26167 18.3327 7.115 18.2743C6.92713 18.2003 6.77255 18.0605 6.68 17.881C6.6075 17.7402 6.58917 17.5593 6.55333 17.1977C6.485 16.5143 6.45083 16.1727 6.3075 15.9843C6.21827 15.8675 6.09974 15.7764 5.96392 15.7202C5.8281 15.664 5.67984 15.6447 5.53417 15.6643C5.3 15.6952 5.03417 15.9127 4.50167 16.3477C4.22083 16.5785 4.08 16.6935 3.92917 16.7418C3.73706 16.8032 3.52921 16.7929 3.34417 16.7127C3.19833 16.6493 3.06917 16.521 2.81333 16.2643L2.06833 15.5193C1.81167 15.2627 1.68333 15.1343 1.62 14.9885C1.53981 14.8035 1.52945 14.5956 1.59083 14.4035C1.63917 14.2527 1.75417 14.1118 1.98417 13.831C2.42 13.2985 2.6375 13.0327 2.66833 12.7985C2.68793 12.6528 2.66866 12.5046 2.61246 12.3688C2.55626 12.2329 2.46513 12.1144 2.34833 12.0252C2.16083 11.8818 1.81833 11.8477 1.13417 11.7793C0.773333 11.7435 0.5925 11.7252 0.450833 11.6527C0.272123 11.56 0.132997 11.4058 0.0591667 11.2185C8.07146e-08 11.071 0 10.8893 0 10.526V9.47268C0 9.10935 -5.58794e-08 8.92768 0.0583333 8.78102C0.132406 8.59315 0.272179 8.43857 0.451667 8.34602C0.5925 8.27352 0.773333 8.25518 1.135 8.21935C1.81833 8.15102 2.16083 8.11685 2.34833 7.97352C2.46529 7.88438 2.55657 7.76589 2.61292 7.63007C2.66927 7.49424 2.68867 7.34593 2.66917 7.20018C2.6375 6.96602 2.41917 6.70018 1.98417 6.16685C1.75417 5.88602 1.63917 5.74602 1.59083 5.59435C1.52945 5.40224 1.53981 5.1944 1.62 5.00935C1.68333 4.86435 1.81167 4.73518 2.06833 4.47852L2.81333 3.73435C3.07 3.47768 3.19833 3.34852 3.34417 3.28602C3.52921 3.20583 3.73706 3.19546 3.92917 3.25685C4.08 3.30518 4.22083 3.42018 4.50167 3.65018C5.03417 4.08518 5.3 4.30268 5.53333 4.33435C5.67934 4.35416 5.828 4.33491 5.96414 4.27855C6.10029 4.22219 6.21905 4.13074 6.30833 4.01352C6.45 3.82602 6.485 3.48435 6.55333 2.80018C6.58917 2.43935 6.6075 2.25852 6.68 2.11685C6.77251 1.93783 6.92675 1.79839 7.11417 1.72435C7.26167 1.66602 7.44333 1.66602 7.80667 1.66602H8.86C9.22333 1.66602 9.405 1.66602 9.55167 1.72435C9.73954 1.79842 9.89412 1.93819 9.98667 2.11768ZM8.33333 13.3327C9.21739 13.3327 10.0652 12.9815 10.6904 12.3564C11.3155 11.7312 11.6667 10.8834 11.6667 9.99935C11.6667 9.11529 11.3155 8.26745 10.6904 7.64233C10.0652 7.0172 9.21739 6.66602 8.33333 6.66602C7.44928 6.66602 6.60143 7.0172 5.97631 7.64233C5.35119 8.26745 5 9.11529 5 9.99935C5 10.8834 5.35119 11.7312 5.97631 12.3564C6.60143 12.9815 7.44928 13.3327 8.33333 13.3327Z" fill="black" fill-opacity="0.5"/>
<path d="M32.9116 2.21875V9.45312H30.9272V5.92188H28.2554V4.34375H30.9272V2.21875H32.9116ZM32.9116 10.0469V13.8438H25.4429V14.7188H33.3179V16.2812H23.4741V12.3906H30.9429V11.5781H23.4585V10.0469H32.9116ZM26.2554 3.71875C26.2397 5.42188 27.2397 7.0625 29.5054 7.73438L28.4585 9.26562C26.9351 8.77344 25.8726 7.82031 25.2554 6.59375C24.6382 7.96094 23.5132 9.03906 21.8491 9.5625L20.8179 7.98438C23.1772 7.29688 24.2241 5.5625 24.2397 3.71875V2.6875H26.2554V3.71875ZM46.7397 2.21875V10.6562H44.7554V7.29688H42.5366V5.6875H44.7554V2.21875H46.7397ZM41.8804 10.9688C44.9116 10.9844 46.771 11.9844 46.7866 13.7188C46.771 15.4375 44.9116 16.4531 41.8804 16.4531C38.8491 16.4531 36.9897 15.4375 36.9897 13.7188C36.9897 11.9844 38.8491 10.9844 41.8804 10.9688ZM41.8804 12.5C39.9897 12.5 38.9741 12.8906 38.9741 13.7188C38.9741 14.5312 39.9897 14.9375 41.8804 14.9375C43.771 14.9375 44.8022 14.5312 44.8022 13.7188C44.8022 12.8906 43.771 12.5 41.8804 12.5ZM42.9585 3.07812V4.67188H40.1304C40.1772 6.32812 41.1772 8 43.396 8.73438L42.4116 10.2969C40.8413 9.78906 39.7632 8.75781 39.146 7.46875C38.5132 8.92188 37.3804 10.0938 35.6929 10.6719L34.6616 9.09375C36.9976 8.3125 38.0444 6.45312 38.0991 4.67188H35.2397V3.07812H42.9585Z" fill="black" fill-opacity="0.5"/>
</svg>
