<svg width="18" height="18" viewBox="0 0 18 18" fill="none" xmlns="http://www.w3.org/2000/svg">
<path fill-rule="evenodd" clip-rule="evenodd" d="M10.6532 1.11768C10.7257 1.25852 10.744 1.43935 10.7798 1.80102C10.8482 2.48435 10.8823 2.82602 11.0257 3.01435C11.115 3.13128 11.2336 3.22249 11.3696 3.2787C11.5056 3.3349 11.654 3.3541 11.7998 3.33435C12.0332 3.30352 12.2998 3.08602 12.8315 2.65102C13.1123 2.42018 13.2532 2.30518 13.404 2.25685C13.5961 2.19546 13.804 2.20583 13.989 2.28602C14.1348 2.34935 14.264 2.47768 14.5198 2.73435L15.2648 3.47935C15.5215 3.73602 15.6498 3.86435 15.7132 4.01018C15.7934 4.19523 15.8037 4.40308 15.7423 4.59518C15.694 4.74602 15.579 4.88685 15.349 5.16768C14.9132 5.70018 14.6957 5.96602 14.664 6.20018C14.6445 6.34593 14.6639 6.49424 14.7203 6.63007C14.7766 6.76589 14.8679 6.88438 14.9848 6.97352C15.1723 7.11685 15.5148 7.15102 16.199 7.21935C16.5598 7.25518 16.7407 7.27352 16.8823 7.34602C17.061 7.43868 17.2002 7.5929 17.274 7.78018C17.3332 7.92768 17.3332 8.10935 17.3332 8.47268V9.52602C17.3332 9.88935 17.3332 10.071 17.2748 10.2177C17.2008 10.4056 17.061 10.5601 16.8815 10.6527C16.7407 10.7252 16.5598 10.7435 16.1982 10.7793C15.5148 10.8477 15.1732 10.8818 14.9848 11.0252C14.8679 11.1145 14.7767 11.2332 14.7205 11.3691C14.6643 11.5051 14.6451 11.6535 14.6648 11.7993C14.6965 12.0327 14.914 12.2993 15.349 12.831C15.579 13.1118 15.694 13.2518 15.7423 13.4035C15.8037 13.5956 15.7934 13.8035 15.7132 13.9885C15.6498 14.1343 15.5215 14.2627 15.2648 14.5193L14.5198 15.2635C14.2632 15.521 14.1348 15.6493 13.989 15.7118C13.804 15.792 13.5961 15.8024 13.404 15.741C13.2532 15.6927 13.1123 15.5777 12.8315 15.3477C12.299 14.9127 12.0332 14.6952 11.7998 14.6643C11.654 14.6446 11.5056 14.6638 11.3696 14.72C11.2336 14.7762 11.115 14.8674 11.0257 14.9843C10.8823 15.1718 10.8482 15.5135 10.7798 16.1977C10.744 16.5593 10.7257 16.7402 10.6532 16.881C10.5608 17.0604 10.4066 17.2001 10.219 17.2743C10.0715 17.3327 9.88984 17.3327 9.5265 17.3327H8.47317C8.10984 17.3327 7.92817 17.3327 7.7815 17.2743C7.59363 17.2003 7.43905 17.0605 7.3465 16.881C7.274 16.7402 7.25567 16.5593 7.21984 16.1977C7.1515 15.5143 7.11734 15.1727 6.974 14.9843C6.88477 14.8675 6.76624 14.7764 6.63042 14.7202C6.49461 14.664 6.34634 14.6447 6.20067 14.6643C5.9665 14.6952 5.70067 14.9127 5.16817 15.3477C4.88734 15.5785 4.7465 15.6935 4.59567 15.7418C4.40357 15.8032 4.19572 15.7929 4.01067 15.7127C3.86484 15.6493 3.73567 15.521 3.47984 15.2643L2.73484 14.5193C2.47817 14.2627 2.34984 14.1343 2.2865 13.9885C2.20631 13.8035 2.19595 13.5956 2.25734 13.4035C2.30567 13.2527 2.42067 13.1118 2.65067 12.831C3.0865 12.2985 3.304 12.0327 3.33484 11.7985C3.35444 11.6528 3.33516 11.5046 3.27896 11.3688C3.22276 11.2329 3.13164 11.1144 3.01484 11.0252C2.82734 10.8818 2.48484 10.8477 1.80067 10.7793C1.43984 10.7435 1.259 10.7252 1.11734 10.6527C0.938627 10.56 0.799501 10.4058 0.725671 10.2185C0.666504 10.071 0.666504 9.88935 0.666504 9.52602V8.47268C0.666504 8.10935 0.666504 7.92768 0.724837 7.78102C0.79891 7.59315 0.938683 7.43857 1.11817 7.34602C1.259 7.27352 1.43984 7.25518 1.8015 7.21935C2.48484 7.15102 2.82734 7.11685 3.01484 6.97352C3.13179 6.88438 3.22307 6.76589 3.27942 6.63007C3.33577 6.49424 3.35518 6.34593 3.33567 6.20018C3.304 5.96602 3.08567 5.70018 2.65067 5.16685C2.42067 4.88602 2.30567 4.74602 2.25734 4.59435C2.19595 4.40224 2.20631 4.1944 2.2865 4.00935C2.34984 3.86435 2.47817 3.73518 2.73484 3.47852L3.47984 2.73435C3.7365 2.47768 3.86484 2.34852 4.01067 2.28602C4.19572 2.20583 4.40357 2.19546 4.59567 2.25685C4.7465 2.30518 4.88734 2.42018 5.16817 2.65018C5.70067 3.08518 5.9665 3.30268 6.19984 3.33435C6.34585 3.35416 6.4945 3.33491 6.63065 3.27855C6.76679 3.22219 6.88556 3.13074 6.97484 3.01352C7.1165 2.82602 7.1515 2.48435 7.21984 1.80018C7.25567 1.43935 7.274 1.25852 7.3465 1.11685C7.43901 0.937825 7.59325 0.798385 7.78067 0.724349C7.92817 0.666016 8.10984 0.666016 8.47317 0.666016H9.5265C9.88984 0.666016 10.0715 0.666016 10.2182 0.724349C10.406 0.798422 10.5606 0.938195 10.6532 1.11768ZM8.99984 12.3327C9.88389 12.3327 10.7317 11.9815 11.3569 11.3564C11.982 10.7312 12.3332 9.8834 12.3332 8.99935C12.3332 8.11529 11.982 7.26745 11.3569 6.64233C10.7317 6.0172 9.88389 5.66602 8.99984 5.66602C8.11578 5.66602 7.26794 6.0172 6.64281 6.64233C6.01769 7.26745 5.6665 8.11529 5.6665 8.99935C5.6665 9.8834 6.01769 10.7312 6.64281 11.3564C7.26794 11.9815 8.11578 12.3327 8.99984 12.3327Z" fill="black"/>
</svg>
